<svg id="Camada_1" data-name="Camada 1" xmlns="http://www.w3.org/2000/svg" viewBox="0 0 100 100"><defs><style>.cls-1{fill:#1e120d;}</style></defs><title>arquivo</title><path class="cls-1" d="M92.09,19H43.69a2.08,2.08,0,0,1-1.35-.72L37.85,11.5a5.54,5.54,0,0,0-4.3-2.3H7.91a3.59,3.59,0,0,0-3.59,3.59V87.21A3.59,3.59,0,0,0,7.91,90.8H92.09a3.59,3.59,0,0,0,3.59-3.59V22.54A3.59,3.59,0,0,0,92.09,19Zm0,68.26L50,87.25l-42.13,0V29.05l0-16.31H33.55a2.09,2.09,0,0,1,1.35.73l4.49,6.73a5.54,5.54,0,0,0,4.3,2.3l48.4,0v.35l0,6.16V87.21Z"/><path class="cls-1" d="M92.09,91.12H7.91A3.91,3.91,0,0,1,4,87.21V12.79A3.91,3.91,0,0,1,7.91,8.88H33.55a5.87,5.87,0,0,1,4.57,2.44l4.49,6.73a1.8,1.8,0,0,0,1.08.58h48.4A3.91,3.91,0,0,1,96,22.54V87.21A3.91,3.91,0,0,1,92.09,91.12ZM7.91,9.52a3.27,3.27,0,0,0-3.26,3.27V87.21a3.27,3.27,0,0,0,3.26,3.27H92.09a3.27,3.27,0,0,0,3.26-3.27V22.54a3.26,3.26,0,0,0-3.26-3.26H43.69a2.38,2.38,0,0,1-1.62-.87l-4.49-6.73a5.18,5.18,0,0,0-4-2.16ZM50,87.57l-42.46,0V29.05l0-16.63h26a2.4,2.4,0,0,1,1.62.87L39.66,20a5.15,5.15,0,0,0,4,2.15l48.72,0v.67l0,6.16V87.54ZM8.19,86.89l41.81,0,41.81,0V29.05l0-6.19-48.08,0a5.87,5.87,0,0,1-4.57-2.44l-4.49-6.73a1.8,1.8,0,0,0-1.08-.58H8.23l0,16Z"/></svg>