<?xml version="1.0" encoding="UTF-8" standalone="no"?>
<svg
   xmlns:dc="http://purl.org/dc/elements/1.1/"
   xmlns:cc="http://creativecommons.org/ns#"
   xmlns:rdf="http://www.w3.org/1999/02/22-rdf-syntax-ns#"
   xmlns:svg="http://www.w3.org/2000/svg"
   xmlns="http://www.w3.org/2000/svg"
   xmlns:sodipodi="http://sodipodi.sourceforge.net/DTD/sodipodi-0.dtd"
   xmlns:inkscape="http://www.inkscape.org/namespaces/inkscape"
   id="Camada_1"
   data-name="Camada 1"
   viewBox="0 0 100 100"
   version="1.1"
   sodipodi:docname="erro_linha2.svg"
   inkscape:version="0.92.4 5da689c313, 2019-01-14">
  <metadata
     id="metadata15">
    <rdf:RDF>
      <cc:Work
         rdf:about="">
        <dc:format>image/svg+xml</dc:format>
        <dc:type
           rdf:resource="http://purl.org/dc/dcmitype/StillImage" />
        <dc:title>erro_linha</dc:title>
      </cc:Work>
    </rdf:RDF>
  </metadata>
  <defs
     id="defs13" />
  <sodipodi:namedview
     pagecolor="#ffffff"
     bordercolor="#666666"
     borderopacity="1"
     objecttolerance="10"
     gridtolerance="10"
     guidetolerance="10"
     inkscape:pageopacity="0"
     inkscape:pageshadow="2"
     inkscape:window-width="1853"
     inkscape:window-height="1025"
     id="namedview11"
     showgrid="false"
     inkscape:zoom="2.36"
     inkscape:cx="-32.627119"
     inkscape:cy="50"
     inkscape:window-x="67"
     inkscape:window-y="27"
     inkscape:window-maximized="1"
     inkscape:current-layer="Camada_1" />
  <title
     id="title2">erro_linha</title>
  <path
     d="M50,97.5A47.5,47.5,0,1,1,97.5,50,47.56,47.56,0,0,1,50,97.5Zm0-92A44.54,44.54,0,1,0,94.54,50,44.59,44.59,0,0,0,50,5.46Z"
     id="path4"
     style="fill:#d72735;fill-opacity:1" />
  <path
     d="M69,70.49a1.52,1.52,0,0,1-1.07-.43l-38-38A1.5,1.5,0,1,1,32.07,30l38,38A1.5,1.5,0,0,1,69,70.49"
     id="path6"
     style="fill:#d72735;fill-opacity:1" />
  <path
     d="M31,70.49a1.5,1.5,0,0,1-1.07-2.57l38-38a1.5,1.5,0,0,1,2.13,0,1.47,1.47,0,0,1,0,2.12l-38,38a1.48,1.48,0,0,1-1.06.43"
     id="path8"
     style="fill:#d72735;fill-opacity:1" />
</svg>
