<?xml version="1.0" encoding="UTF-8" standalone="no"?>
<svg
   xmlns:dc="http://purl.org/dc/elements/1.1/"
   xmlns:cc="http://creativecommons.org/ns#"
   xmlns:rdf="http://www.w3.org/1999/02/22-rdf-syntax-ns#"
   xmlns:svg="http://www.w3.org/2000/svg"
   xmlns="http://www.w3.org/2000/svg"
   xmlns:sodipodi="http://sodipodi.sourceforge.net/DTD/sodipodi-0.dtd"
   xmlns:inkscape="http://www.inkscape.org/namespaces/inkscape"
   id="Camada_1"
   data-name="Camada 1"
   viewBox="0 0 100 100"
   version="1.1"
   sodipodi:docname="nao_visualizar.svg"
   inkscape:version="0.92.4 5da689c313, 2019-01-14">
  <metadata
     id="metadata13">
    <rdf:RDF>
      <cc:Work
         rdf:about="">
        <dc:format>image/svg+xml</dc:format>
        <dc:type
           rdf:resource="http://purl.org/dc/dcmitype/StillImage" />
        <dc:title>nao_visualizar</dc:title>
      </cc:Work>
    </rdf:RDF>
  </metadata>
  <defs
     id="defs11" />
  <sodipodi:namedview
     pagecolor="#ffffff"
     bordercolor="#666666"
     borderopacity="1"
     objecttolerance="10"
     gridtolerance="10"
     guidetolerance="10"
     inkscape:pageopacity="0"
     inkscape:pageshadow="2"
     inkscape:window-width="1853"
     inkscape:window-height="1025"
     id="namedview9"
     showgrid="false"
     inkscape:zoom="2.36"
     inkscape:cx="50"
     inkscape:cy="50"
     inkscape:window-x="67"
     inkscape:window-y="27"
     inkscape:window-maximized="1"
     inkscape:current-layer="Camada_1" />
  <title
     id="title2">nao_visualizar</title>
  <path
     d="M16.41,27.7l7.47,7.47A62.65,62.65,0,0,0,2.43,54.61l-.43.7.34.74C2.46,56.31,14.72,82.4,50,82.4a61,61,0,0,0,18.41-2.7l7.36,7.36,3.92-3.93L20.33,23.77ZM50,71.3A15.9,15.9,0,0,1,34.12,55.42a15.57,15.57,0,0,1,2.15-7.87l.8.81a8.49,8.49,0,0,0,8,8L57.89,69.18A15.72,15.72,0,0,1,50,71.3Z"
     id="path4"
     style="fill:#999999;fill-opacity:1" />
  <path
     d="M97.57,54.61C97.41,54.35,81.15,28.43,50,28.43a53.55,53.55,0,0,0-15.07,2.15l19,19a8.17,8.17,0,0,0,.17-1.65,8.47,8.47,0,0,0-6.15-8.13,14.51,14.51,0,0,1,2.1-.22A15.9,15.9,0,0,1,65.88,55.42a15.58,15.58,0,0,1-.9,5.21L79.26,74.9c13.16-7.72,18.32-18.68,18.4-18.85l.34-.74Z"
     id="path6"
     style="fill:#999999;fill-opacity:1" />
</svg>
