<svg id="Camada_1" data-name="Camada 1" xmlns="http://www.w3.org/2000/svg" viewBox="0 0 100 100"><title>silenciar</title><path style="fill:#8b979f;fill-opacity:1" d="M52.13,12.61a1,1,0,0,0-1.05.08L18,36H3a1,1,0,0,0-1,1V63.4a1,1,0,0,0,1,1h14.2l33.9,22.92a1.06,1.06,0,0,0,.57.17,1,1,0,0,0,.48-.12,1,1,0,0,0,.53-.89v-73A1,1,0,0,0,52.13,12.61Z"/><polygon style="fill:#8b979f;fill-opacity:1" points="98.03 34.32 94.84 31.14 79.17 46.82 63.49 31.14 60.31 34.32 75.98 50 60.31 65.68 63.49 68.86 79.17 53.18 94.84 68.86 98.03 65.68 82.35 50 98.03 34.32"/></svg>