<svg id="Camada_1" data-name="Camada 1" xmlns="http://www.w3.org/2000/svg" viewBox="0 0 100 100"><title>som</title><path style="fill:#8b979f;fill-opacity:1" d="M78.07,22l-.71-.58-2.89,2.9.88.7A31.79,31.79,0,0,1,74.83,75l-.92.7,2.91,2.9.7-.56A35.83,35.83,0,0,0,78.07,22Z"/><path style="fill:#8b979f;fill-opacity:1" d="M69.05,31l-.71-.51-2.91,2.91,1,.69a19.15,19.15,0,0,1-.65,31.84l-1.06.68,3,3,.7-.47A23.21,23.21,0,0,0,69.05,31Z"/><path style="fill:#8b979f;fill-opacity:1" d="M58.82,12.61a1,1,0,0,0-1.06.08L24.71,36h-15a1,1,0,0,0-1,1V63.4a1,1,0,0,0,1,1h14.2l33.9,22.92a1.06,1.06,0,0,0,.57.17,1,1,0,0,0,.47-.12,1,1,0,0,0,.54-.89v-73A1,1,0,0,0,58.82,12.61Z"/></svg>